<?xml version="1.0" encoding="utf-8"?>
<!-- Generator: Adobe Illustrator 25.3.1, SVG Export Plug-In . SVG Version: 6.00 Build 0)  -->
<svg version="1.1" baseProfile="basic" id="Layer_1"
	 xmlns="http://www.w3.org/2000/svg" xmlns:xlink="http://www.w3.org/1999/xlink" x="0px" y="0px" viewBox="0 0 2480 1754"
	 xml:space="preserve">
<rect fill="#FFFFFF" width="2480" height="1754"/>
<rect x="59" y="236" fill="#FFFFFF" stroke="#212121" stroke-width="4" width="1534" height="708"/>
<rect x="59" y="944" fill="#FFFFFF" stroke="#212121" stroke-width="4" width="1534" height="751"/>
<rect x="1593" y="236" fill="#FFFFFF" stroke="#212121" stroke-width="4" width="826" height="1239"/>
<path fill="#231F20" d="M194.8,108.7c-4.1-0.1-8,2.1-9.8,5.8v-5.6h-2.1v32.7h2.3v-14.4c1.9,3.5,5.7,5.7,9.7,5.6
	c6.5-0.2,11.7-5.6,11.7-12.1C206.6,114.3,201.4,108.9,194.8,108.7z M194.7,130.8c-4.1,0.2-7.9-2.1-9.6-5.9
	c-1.8-3.7-0.9-8.1,1.9-11.1c2.8-3,7.2-3.9,11-2.4c3.8,1.5,6.3,5.2,6.3,9.3c0.2,2.6-0.8,5.2-2.6,7.1
	C199.9,129.7,197.3,130.8,194.7,130.8z M229.5,114.1v-5.1h-2.2v23.5h2.4v-12.3c0-5.8,3.1-9.2,8.6-9.2c0.2,0,0.4,0,0.5,0v-2.2
	C234.1,108.7,231,110.5,229.5,114.1z M259,100.3c-1.1,0-1.9,0.8-1.9,1.9s0.8,1.9,1.9,1.9c1.1,0,1.9-0.8,1.9-1.9
	S260.1,100.3,259,100.3z"/>
<path fill="#231F20" d="M260.1,108.7h-2.3v23.7h2.3V108.7z"/>
<path fill="#231F20" d="M294.8,108.7c-3.9-0.3-7.6,1.8-9.5,5.3v-5.1H283v23.5h2.3v-12.5c0-5.6,3.4-9.2,9-9.2c4.8,0,7.8,2.8,7.8,8.1
	v13.5h2.3v-13.8C304.5,112.1,300.6,108.7,294.8,108.7z M335,132c-3,0-4.5-1.7-4.5-4.7V112h7.6v-1.9h-7.6v-5.2h-2.4v5.2h-4.5v1.9h4.4
	v15.4c-0.2,1.8,0.5,3.5,1.8,4.7c1.3,1.2,3.1,1.8,4.9,1.7c1.8,0.1,3.6-0.5,5-1.7l-1-1.5C337.6,131.5,336.3,132,335,132z M368.1,108.7
	c-5-0.1-9.5,2.8-11.4,7.4c-1.9,4.6-0.9,9.9,2.5,13.4c3.5,3.5,8.8,4.6,13.4,2.8c4.6-1.9,7.6-6.3,7.6-11.3c0.2-3.3-1.1-6.4-3.4-8.7
	C374.5,109.9,371.4,108.6,368.1,108.7z M368.1,131.1c-4.1,0.2-8-2.1-9.7-6c-1.7-3.8-1-8.3,1.9-11.2c2.8-3,7.3-4,11.2-2.4
	c3.8,1.5,6.4,5.3,6.4,9.4c0.2,2.7-0.8,5.3-2.7,7.2C373.4,130,370.8,131.1,368.1,131.1z"/>
<path fill="#231F20" d="M420.5,109.5h-2.9l-15.2,13.8V99.5h-2.3v33.6h2.3v-7l6.2-5.7l10.1,12.7h2.8L410.2,119L420.5,109.5z"/>
<path fill="#231F20" d="M448.3,108.7c-3.4-0.1-6.8,1.1-9.4,3.4l1.1,1.7c2.2-2,5.1-3.1,8.1-3.1c4.6,0,7,2.4,7,6.9v1.9h-8
	c-6.5,0-8.8,3.1-8.8,6.7c0,4.1,3.2,6.9,8.5,6.9c4.1,0,7-1.7,8.5-4.5v4.3h2.1v-15.3C457.4,111.8,454.1,108.7,448.3,108.7z
	 M455.1,125.8c-1.2,3.4-4.5,5.7-8,5.4c-4.1,0-6.5-1.9-6.5-5c0-2.8,1.7-4.8,6.6-4.8h8V125.8z"/>
<linearGradient id="SVGID_1_" gradientUnits="userSpaceOnUse" x1="76.5321" y1="1672.5579" x2="142.1089" y2="1634.6962" gradientTransform="matrix(1 0 0 -1 0 1754)">
	<stop  offset="0" style="stop-color:#FFF420"/>
	<stop  offset="0.1934" style="stop-color:#FFE421"/>
	<stop  offset="0.571" style="stop-color:#FFBA25"/>
	<stop  offset="1" style="stop-color:#FF842A"/>
</linearGradient>
<path fill="url(#SVGID_1_)" d="M109.3,138.2c20.9,0,37.9-16.9,37.9-37.9c0-20.9-16.9-37.9-37.9-37.9c-20.9,0-37.9,16.9-37.9,37.9
	C71.5,121.3,88.4,138.2,109.3,138.2z"/>
<linearGradient id="SVGID_2_" gradientUnits="userSpaceOnUse" x1="105.0791" y1="1611.882" x2="113.7371" y2="1660.9818" gradientTransform="matrix(1 0 0 -1 0 1754)">
	<stop  offset="0" style="stop-color:#5763D2"/>
	<stop  offset="1.082550e-07" style="stop-color:#5763D2"/>
	<stop  offset="1" style="stop-color:#00F1B6"/>
</linearGradient>
<path fill="url(#SVGID_2_)" d="M148.3,108.8c0-0.3,0-0.5,0-0.8c-0.3-3.1-0.8-6.2-1.5-9.3c-8-5.2-19-8.5-31.1-8.5
	c-24.6,0-44.5,13.1-44.5,29.2c0,16.1,19.7,29,44,29.1c1.3-0.5,2.8-0.9,4.4-0.9c1-0.4,2.1-0.6,3.3-0.7
	C135.7,137.8,149.2,125.5,148.3,108.8z"/>
<linearGradient id="SVGID_3_" gradientUnits="userSpaceOnUse" x1="64.5474" y1="1657.0796" x2="91.1038" y2="1641.7472" gradientTransform="matrix(1 0 0 -1 0 1754)">
	<stop  offset="0" style="stop-color:#FF9D00"/>
	<stop  offset="3.247650e-07" style="stop-color:#FF9D00"/>
	<stop  offset="1" style="stop-color:#E42220"/>
</linearGradient>
<path fill="url(#SVGID_3_)" d="M77.8,137.2c9.1,0,16.4-14.6,16.4-32.6c0-18-7.4-32.6-16.4-32.6s-16.4,14.6-16.4,32.6
	C61.4,122.6,68.7,137.2,77.8,137.2z"/>
<path fill="#212121" d="M105.6,59C79.9,59,59,79.9,59,105.6V177h6.7v-47.3c8.2,13.5,22.9,22.5,39.9,22.5c25.8,0,46.6-20.9,46.6-46.6
	C152.2,79.9,131.3,59,105.6,59z M105.6,145.3c-21.9,0-39.7-17.7-39.7-39.7c0-21.9,17.8-39.7,39.7-39.7c21.9,0,39.7,17.7,39.7,39.7
	C145.3,127.5,127.5,145.3,105.6,145.3z"/>
<path fill="#212121" d="M127.3,306.2c-1.6,0-3.1-0.2-4.6-0.7c-1.5-0.5-2.6-1.1-3.4-1.9l1.1-2.3c0.8,0.7,1.8,1.3,3.1,1.8
	c1.3,0.4,2.5,0.7,3.9,0.7c1.7,0,3-0.3,3.9-0.9c0.9-0.6,1.3-1.4,1.3-2.4c0-0.7-0.2-1.3-0.7-1.7c-0.5-0.5-1-0.8-1.7-1
	c-0.7-0.2-1.6-0.5-2.9-0.8c-1.6-0.4-2.9-0.8-3.8-1.1c-1-0.4-1.8-1-2.5-1.7c-0.7-0.8-1-1.9-1-3.2c0-1.1,0.3-2.1,0.9-3
	c0.6-0.9,1.5-1.6,2.7-2.2c1.2-0.5,2.7-0.8,4.5-0.8c1.2,0,2.5,0.2,3.7,0.5c1.2,0.3,2.2,0.8,3.1,1.4l-1,2.4c-0.9-0.6-1.8-1-2.8-1.3
	c-1-0.3-2-0.5-2.9-0.5c-1.7,0-3,0.3-3.8,0.9c-0.8,0.6-1.3,1.4-1.3,2.4c0,0.7,0.2,1.3,0.7,1.8c0.5,0.4,1.1,0.8,1.8,1
	c0.7,0.2,1.7,0.5,2.9,0.8c1.6,0.4,2.8,0.8,3.8,1.1s1.8,1,2.5,1.7c0.7,0.8,1,1.8,1,3.1c0,1.1-0.3,2.1-0.9,3c-0.6,0.9-1.5,1.6-2.7,2.2
	C130.6,306,129.1,306.2,127.3,306.2z M154.6,303.4v2.6h-15.2v-21h14.8v2.6h-11.8v6.5h10.5v2.5h-10.5v6.8H154.6z M177.2,285v21h-2.5
	l-12.6-15.7V306h-3v-21h2.5l12.6,15.7V285H177.2z M183.1,285h8.9c2.2,0,4.2,0.4,5.9,1.3c1.7,0.9,3.1,2.1,4,3.7
	c1,1.6,1.4,3.4,1.4,5.5s-0.5,3.9-1.4,5.5c-0.9,1.6-2.3,2.8-4,3.7c-1.7,0.9-3.7,1.3-5.9,1.3h-8.9V285z M191.8,303.4
	c1.7,0,3.2-0.3,4.5-1c1.3-0.7,2.3-1.6,3-2.8c0.7-1.2,1.1-2.6,1.1-4.1s-0.4-2.9-1.1-4.1c-0.7-1.2-1.7-2.1-3-2.8c-1.3-0.7-2.8-1-4.5-1
	h-5.7v15.8H191.8z M222.8,303.4v2.6h-15.2v-21h14.8v2.6h-11.8v6.5H221v2.5h-10.5v6.8H222.8z M241.3,306l-4.5-6.5
	c-0.6,0-1,0.1-1.3,0.1h-5.2v6.4h-3v-21h8.2c2.7,0,4.9,0.6,6.4,2c1.6,1.3,2.3,3.1,2.3,5.4c0,1.6-0.4,3-1.2,4.1
	c-0.8,1.1-1.9,2-3.4,2.5l5,7H241.3z M235.3,297.1c1.9,0,3.4-0.4,4.4-1.2c1-0.8,1.5-2,1.5-3.5c0-1.5-0.5-2.7-1.5-3.5
	c-1-0.8-2.5-1.2-4.4-1.2h-5.1v9.5H235.3z M256.3,285h8.8c2.2,0,4.2,0.4,5.9,1.3s3.1,2.1,4,3.7c1,1.6,1.4,3.4,1.4,5.5
	s-0.5,3.9-1.4,5.5c-0.9,1.6-2.3,2.8-4,3.7s-3.7,1.3-5.9,1.3h-8.8V285z M265,303.4c1.7,0,3.2-0.3,4.5-1c1.3-0.7,2.3-1.6,3-2.8
	c0.7-1.2,1.1-2.6,1.1-4.1s-0.4-2.9-1.1-4.1c-0.7-1.2-1.7-2.1-3-2.8c-1.3-0.7-2.8-1-4.5-1h-5.7v15.8H265z M296,303.4v2.6h-15.2v-21
	h14.8v2.6h-11.8v6.5h10.5v2.5h-10.5v6.8H296z M304.6,287.6h-7.2V285h17.4v2.6h-7.2V306h-3V287.6z M330,300.8h-11.2l-2.3,5.2h-3.1
	l9.5-21h3l9.5,21h-3.1L330,300.8z M329,298.4l-4.5-10.3l-4.5,10.3H329z M338.2,285h3v21h-3V285z M347.2,285h3v18.4h11.4v2.6h-14.4
	V285z M370.5,306.2c-1.6,0-3.1-0.2-4.6-0.7c-1.5-0.5-2.6-1.1-3.5-1.9l1.1-2.3c0.8,0.7,1.8,1.3,3.1,1.8c1.3,0.4,2.5,0.7,3.9,0.7
	c1.7,0,3-0.3,3.9-0.9c0.9-0.6,1.3-1.4,1.3-2.4c0-0.7-0.2-1.3-0.7-1.7c-0.5-0.5-1-0.8-1.7-1c-0.7-0.2-1.6-0.5-2.9-0.8
	c-1.6-0.4-2.9-0.8-3.8-1.1c-1-0.4-1.8-1-2.5-1.7c-0.7-0.8-1-1.9-1-3.2c0-1.1,0.3-2.1,0.9-3c0.6-0.9,1.5-1.6,2.7-2.2
	c1.2-0.5,2.7-0.8,4.5-0.8c1.2,0,2.5,0.2,3.7,0.5c1.2,0.3,2.2,0.8,3.1,1.4l-1,2.4c-0.9-0.6-1.8-1-2.8-1.3c-1-0.3-2-0.5-2.9-0.5
	c-1.7,0-3,0.3-3.8,0.9c-0.8,0.6-1.3,1.4-1.3,2.4c0,0.7,0.2,1.3,0.7,1.8c0.5,0.4,1.1,0.8,1.8,1c0.7,0.2,1.7,0.5,2.9,0.8
	c1.6,0.4,2.9,0.8,3.8,1.1s1.8,1,2.5,1.7c0.7,0.8,1.1,1.8,1.1,3.1c0,1.1-0.3,2.1-0.9,3c-0.6,0.9-1.5,1.6-2.7,2.2
	C373.8,306,372.3,306.2,370.5,306.2z M393.6,311.8c-1.1-1.8-2-4-2.6-6.3c-0.6-2.4-0.9-5-0.9-7.7s0.3-5.3,0.9-7.7
	c0.6-2.4,1.5-4.5,2.6-6.3h2.7c-1.2,2.1-2.1,4.3-2.6,6.6c-0.6,2.3-0.8,4.8-0.8,7.4s0.3,5.1,0.8,7.4s1.4,4.5,2.6,6.6H393.6z
	 M408.3,285c2.7,0,4.9,0.6,6.4,2c1.6,1.3,2.3,3.1,2.3,5.4s-0.8,4.1-2.3,5.4s-3.7,2-6.4,2h-5.2v6.4h-3v-21H408.3z M408.2,297
	c1.9,0,3.4-0.4,4.4-1.2c1-0.8,1.5-2,1.5-3.5c0-1.5-0.5-2.7-1.5-3.5c-1-0.8-2.4-1.2-4.4-1.2h-5.1v9.4H408.2z M436.3,303.4v2.6H421
	v-21h14.8v2.6H424v6.5h10.5v2.5H424v6.8H436.3z M458.8,285v21h-2.5l-12.6-15.7V306h-3v-21h2.5l12.6,15.7V285H458.8z M479.3,295.4
	h2.9v8.2c-1,0.9-2.2,1.5-3.6,2c-1.4,0.5-2.8,0.7-4.3,0.7c-2.1,0-4-0.5-5.7-1.4c-1.7-0.9-3-2.2-4-3.8c-1-1.6-1.4-3.5-1.4-5.5
	s0.5-3.9,1.4-5.5c1-1.6,2.3-2.9,4-3.8c1.7-0.9,3.6-1.4,5.8-1.4c1.7,0,3.2,0.3,4.6,0.8c1.4,0.5,2.5,1.3,3.5,2.4l-1.9,1.9
	c-1.7-1.6-3.7-2.4-6.1-2.4c-1.6,0-3,0.4-4.3,1.1c-1.3,0.7-2.2,1.6-3,2.9c-0.7,1.2-1.1,2.6-1.1,4.1c0,1.5,0.4,2.9,1.1,4.1
	c0.7,1.2,1.7,2.2,3,2.9c1.3,0.7,2.7,1.1,4.3,1.1c1.9,0,3.5-0.5,4.9-1.4V295.4z M487.5,285h3v21h-3V285z M510.5,306l-4.5-6.5
	c-0.6,0-1,0.1-1.3,0.1h-5.2v6.4h-3v-21h8.2c2.7,0,4.9,0.6,6.4,2c1.6,1.3,2.3,3.1,2.3,5.4c0,1.6-0.4,3-1.2,4.1
	c-0.8,1.1-1.9,2-3.4,2.5l5,7H510.5z M504.5,297.1c1.9,0,3.3-0.4,4.3-1.2c1-0.8,1.5-2,1.5-3.5c0-1.5-0.5-2.7-1.5-3.5
	c-1-0.8-2.4-1.2-4.3-1.2h-5.1v9.5H504.5z M517.9,285h3v21h-3V285z M546.3,306l0-15.3l-7.6,12.8h-1.4l-7.6-12.7V306h-2.9v-21h2.5
	l8.8,14.8l8.6-14.8h2.5l0,21H546.3z M552.9,311.8c1.2-2.1,2.1-4.3,2.6-6.6c0.6-2.3,0.9-4.8,0.9-7.4s-0.3-5.1-0.9-7.4
	c-0.6-2.3-1.4-4.5-2.6-6.6h2.7c1.2,1.8,2.1,3.9,2.7,6.3s0.9,5,0.9,7.7c0,2.7-0.3,5.3-0.9,7.7c-0.6,2.4-1.5,4.5-2.7,6.3H552.9z"/>
<path fill="#212121" d="M1664.6,306.2c-2.1,0-4-0.5-5.7-1.4c-1.7-0.9-3-2.2-4-3.9c-1-1.6-1.4-3.5-1.4-5.5s0.5-3.9,1.4-5.5
	c1-1.6,2.3-2.9,4-3.8c1.7-0.9,3.6-1.4,5.7-1.4c2.1,0,4,0.5,5.7,1.4c1.7,0.9,3,2.2,4,3.8c1,1.6,1.4,3.4,1.4,5.5s-0.5,3.9-1.4,5.5
	c-1,1.6-2.3,2.9-4,3.8C1668.6,305.8,1666.7,306.2,1664.6,306.2z M1664.6,303.6c1.5,0,2.9-0.4,4.1-1.1c1.2-0.7,2.2-1.7,2.9-2.9
	c0.7-1.2,1.1-2.6,1.1-4.1s-0.4-2.9-1.1-4.1c-0.7-1.2-1.7-2.2-2.9-2.9c-1.2-0.7-2.6-1.1-4.1-1.1s-2.9,0.4-4.2,1.1
	c-1.2,0.7-2.2,1.7-2.9,2.9c-0.7,1.2-1.1,2.6-1.1,4.1s0.4,2.9,1.1,4.1c0.7,1.2,1.7,2.2,2.9,2.9
	C1661.7,303.2,1663.1,303.6,1664.6,303.6z M1694,306l-4.5-6.5c-0.6,0-1,0.1-1.3,0.1h-5.2v6.4h-3v-21h8.2c2.7,0,4.9,0.6,6.4,2
	c1.6,1.3,2.3,3.1,2.3,5.4c0,1.6-0.4,3-1.2,4.1c-0.8,1.1-1.9,2-3.4,2.5l5,7H1694z M1688.1,297.1c1.9,0,3.4-0.4,4.4-1.2
	c1-0.8,1.5-2,1.5-3.5c0-1.5-0.5-2.7-1.5-3.5c-1-0.8-2.5-1.2-4.4-1.2h-5.1v9.5H1688.1z M1701.4,285h8.8c2.2,0,4.2,0.4,5.9,1.3
	s3,2.1,4,3.7c1,1.6,1.4,3.4,1.4,5.5s-0.5,3.9-1.4,5.5c-0.9,1.6-2.3,2.8-4,3.7s-3.7,1.3-5.9,1.3h-8.8V285z M1710.1,303.4
	c1.7,0,3.2-0.3,4.5-1c1.3-0.7,2.3-1.6,3-2.8c0.7-1.2,1-2.6,1-4.1s-0.3-2.9-1-4.1c-0.7-1.2-1.7-2.1-3-2.8c-1.3-0.7-2.8-1-4.5-1h-5.7
	v15.8H1710.1z M1741,303.4v2.6h-15.2v-21h14.8v2.6h-11.8v6.5h10.5v2.5h-10.5v6.8H1741z M1759.6,306l-4.5-6.5c-0.6,0-1,0.1-1.3,0.1
	h-5.2v6.4h-3v-21h8.2c2.7,0,4.9,0.6,6.4,2c1.6,1.3,2.3,3.1,2.3,5.4c0,1.6-0.4,3-1.2,4.1c-0.8,1.1-1.9,2-3.4,2.5l5,7H1759.6z
	 M1753.6,297.1c1.9,0,3.3-0.4,4.3-1.2c1-0.8,1.5-2,1.5-3.5c0-1.5-0.5-2.7-1.5-3.5c-1-0.8-2.4-1.2-4.3-1.2h-5.1v9.5H1753.6z
	 M1774.6,285h8.8c2.2,0,4.2,0.4,5.9,1.3s3,2.1,4,3.7c1,1.6,1.4,3.4,1.4,5.5s-0.5,3.9-1.4,5.5c-0.9,1.6-2.3,2.8-4,3.7
	s-3.7,1.3-5.9,1.3h-8.8V285z M1783.3,303.4c1.7,0,3.2-0.3,4.5-1c1.3-0.7,2.3-1.6,3-2.8c0.7-1.2,1-2.6,1-4.1s-0.3-2.9-1-4.1
	c-0.7-1.2-1.7-2.1-3-2.8c-1.3-0.7-2.8-1-4.5-1h-5.7v15.8H1783.3z M1814.3,303.4v2.6H1799v-21h14.8v2.6H1802v6.5h10.5v2.5H1802v6.8
	H1814.3z M1822.9,287.6h-7.2V285h17.4v2.6h-7.2V306h-3V287.6z M1848.3,300.8h-11.2l-2.3,5.2h-3.1l9.5-21h3l9.5,21h-3.2L1848.3,300.8
	z M1847.3,298.4l-4.5-10.3l-4.5,10.3H1847.3z M1856.5,285h3v21h-3V285z M1865.4,285h3v18.4h11.4v2.6h-14.4V285z M1888.8,306.2
	c-1.6,0-3.1-0.2-4.6-0.7c-1.5-0.5-2.6-1.1-3.4-1.9l1.1-2.3c0.8,0.7,1.8,1.3,3.1,1.8c1.3,0.4,2.5,0.7,3.9,0.7c1.7,0,3-0.3,3.9-0.9
	c0.9-0.6,1.3-1.4,1.3-2.4c0-0.7-0.2-1.3-0.7-1.7c-0.5-0.5-1-0.8-1.7-1c-0.7-0.2-1.7-0.5-2.9-0.8c-1.6-0.4-2.9-0.8-3.8-1.1
	c-1-0.4-1.8-1-2.5-1.7c-0.7-0.8-1-1.9-1-3.2c0-1.1,0.3-2.1,0.9-3c0.6-0.9,1.5-1.6,2.7-2.2c1.2-0.5,2.7-0.8,4.5-0.8
	c1.2,0,2.5,0.2,3.7,0.5c1.2,0.3,2.2,0.8,3.1,1.4l-1,2.4c-0.9-0.6-1.8-1-2.8-1.3c-1-0.3-2-0.5-2.9-0.5c-1.7,0-3,0.3-3.8,0.9
	c-0.8,0.6-1.3,1.4-1.3,2.4c0,0.7,0.2,1.3,0.7,1.8c0.5,0.4,1.1,0.8,1.8,1c0.7,0.2,1.7,0.5,2.9,0.8c1.6,0.4,2.8,0.8,3.8,1.1
	c1,0.4,1.8,1,2.5,1.7c0.7,0.8,1.1,1.8,1.1,3.1c0,1.1-0.3,2.1-0.9,3c-0.6,0.9-1.5,1.6-2.7,2.2C1892.1,306,1890.6,306.2,1888.8,306.2z
	 M1901.1,294.1c-0.6,0-1-0.2-1.4-0.6c-0.4-0.4-0.6-0.9-0.6-1.5c0-0.6,0.2-1.1,0.6-1.4c0.4-0.4,0.9-0.6,1.4-0.6c0.6,0,1,0.2,1.4,0.6
	c0.4,0.4,0.6,0.9,0.6,1.5c0,0.6-0.2,1.1-0.6,1.5C1902.1,293.9,1901.6,294.1,1901.1,294.1z M1901.1,306.2c-0.6,0-1-0.2-1.4-0.6
	c-0.4-0.4-0.6-0.9-0.6-1.5c0-0.6,0.2-1.1,0.6-1.4c0.4-0.4,0.9-0.6,1.4-0.6c0.6,0,1,0.2,1.4,0.6c0.4,0.4,0.6,0.9,0.6,1.5
	c0,0.6-0.2,1.1-0.6,1.5C1902.1,306,1901.6,306.2,1901.1,306.2z"/>
<path fill="#212121" d="M1664.6,188.2c-2.1,0-4-0.5-5.7-1.4c-1.7-0.9-3-2.2-4-3.9c-1-1.6-1.4-3.5-1.4-5.5s0.5-3.9,1.4-5.5
	c1-1.6,2.3-2.9,4-3.8c1.7-0.9,3.6-1.4,5.7-1.4c2.1,0,4,0.5,5.7,1.4c1.7,0.9,3,2.2,4,3.8c1,1.6,1.4,3.5,1.4,5.5s-0.5,3.9-1.4,5.5
	c-1,1.6-2.3,2.9-4,3.8C1668.6,187.8,1666.7,188.2,1664.6,188.2z M1664.6,185.6c1.5,0,2.9-0.4,4.1-1.1c1.2-0.7,2.2-1.7,2.9-2.9
	c0.7-1.2,1.1-2.6,1.1-4.1s-0.4-2.9-1.1-4.1c-0.7-1.2-1.7-2.2-2.9-2.9c-1.2-0.7-2.6-1.1-4.1-1.1s-2.9,0.4-4.2,1.1
	c-1.2,0.7-2.2,1.7-2.9,2.9c-0.7,1.2-1.1,2.6-1.1,4.1s0.4,2.9,1.1,4.1c0.7,1.2,1.7,2.2,2.9,2.9
	C1661.7,185.2,1663.1,185.6,1664.6,185.6z M1694,188l-4.5-6.4c-0.6,0-1,0.1-1.3,0.1h-5.2v6.4h-3v-21h8.2c2.7,0,4.9,0.6,6.4,1.9
	c1.6,1.3,2.3,3.1,2.3,5.4c0,1.6-0.4,3-1.2,4.1c-0.8,1.1-1.9,2-3.4,2.5l5,7.1H1694z M1688.1,179.1c1.9,0,3.4-0.4,4.4-1.2
	c1-0.8,1.5-2,1.5-3.5c0-1.5-0.5-2.7-1.5-3.5c-1-0.8-2.5-1.2-4.4-1.2h-5.1v9.4H1688.1z M1701.4,167h8.8c2.2,0,4.2,0.4,5.9,1.3
	c1.7,0.9,3,2.1,4,3.7c1,1.6,1.4,3.4,1.4,5.5s-0.5,3.9-1.4,5.5c-0.9,1.6-2.3,2.8-4,3.7c-1.7,0.9-3.7,1.3-5.9,1.3h-8.8V167z
	 M1710.1,185.4c1.7,0,3.2-0.3,4.5-1c1.3-0.7,2.3-1.6,3-2.8c0.7-1.2,1-2.6,1-4.1s-0.3-2.9-1-4.1c-0.7-1.2-1.7-2.1-3-2.8
	c-1.3-0.7-2.8-1-4.5-1h-5.7v15.8H1710.1z M1741,185.4v2.6h-15.2v-21h14.8v2.6h-11.8v6.4h10.5v2.6h-10.5v6.8H1741z M1759.6,188
	l-4.5-6.4c-0.6,0-1,0.1-1.3,0.1h-5.2v6.4h-3v-21h8.2c2.7,0,4.9,0.6,6.4,1.9c1.6,1.3,2.3,3.1,2.3,5.4c0,1.6-0.4,3-1.2,4.1
	c-0.8,1.1-1.9,2-3.4,2.5l5,7.1H1759.6z M1753.6,179.1c1.9,0,3.3-0.4,4.3-1.2c1-0.8,1.5-2,1.5-3.5c0-1.5-0.5-2.7-1.5-3.5
	c-1-0.8-2.4-1.2-4.3-1.2h-5.1v9.4H1753.6z M1792.7,167v21h-2.5l-12.6-15.7V188h-3v-21h2.5l12.6,15.7V167H1792.7z M1808.1,188.2
	c-2.1,0-4-0.5-5.7-1.4c-1.7-0.9-3-2.2-4-3.9c-1-1.6-1.4-3.5-1.4-5.5s0.5-3.9,1.4-5.5c1-1.6,2.3-2.9,4-3.8c1.7-0.9,3.6-1.4,5.7-1.4
	c2.1,0,4,0.5,5.7,1.4c1.7,0.9,3,2.2,4,3.8c1,1.6,1.4,3.5,1.4,5.5s-0.5,3.9-1.4,5.5c-1,1.6-2.3,2.9-4,3.8
	C1812.1,187.8,1810.2,188.2,1808.1,188.2z M1808.1,185.6c1.5,0,2.9-0.4,4.1-1.1c1.2-0.7,2.2-1.7,2.9-2.9c0.7-1.2,1.1-2.6,1.1-4.1
	s-0.4-2.9-1.1-4.1c-0.7-1.2-1.7-2.2-2.9-2.9c-1.2-0.7-2.6-1.1-4.1-1.1c-1.5,0-2.9,0.4-4.2,1.1c-1.2,0.7-2.2,1.7-2.9,2.9
	c-0.7,1.2-1,2.6-1,4.1s0.3,2.9,1,4.1c0.7,1.2,1.7,2.2,2.9,2.9C1805.1,185.2,1806.5,185.6,1808.1,185.6z M1823.1,188.2
	c-0.6,0-1-0.2-1.4-0.6c-0.4-0.4-0.6-0.9-0.6-1.5c0-0.6,0.2-1.1,0.6-1.4c0.4-0.4,0.9-0.6,1.4-0.6c0.6,0,1,0.2,1.4,0.6
	s0.6,0.9,0.6,1.5s-0.2,1.1-0.6,1.5C1824.1,188,1823.6,188.2,1823.1,188.2z M1829.5,176.1c-0.6,0-1-0.2-1.4-0.6
	c-0.4-0.4-0.6-0.9-0.6-1.5c0-0.6,0.2-1.1,0.6-1.4c0.4-0.4,0.9-0.6,1.4-0.6c0.6,0,1,0.2,1.4,0.6c0.4,0.4,0.6,0.9,0.6,1.5
	c0,0.6-0.2,1.1-0.6,1.5C1830.5,175.9,1830.1,176.1,1829.5,176.1z M1829.5,188.2c-0.6,0-1-0.2-1.4-0.6c-0.4-0.4-0.6-0.9-0.6-1.5
	c0-0.6,0.2-1.1,0.6-1.4c0.4-0.4,0.9-0.6,1.4-0.6c0.6,0,1,0.2,1.4,0.6c0.4,0.4,0.6,0.9,0.6,1.5s-0.2,1.1-0.6,1.5
	C1830.5,188,1830.1,188.2,1829.5,188.2z"/>
<path fill="#212121" d="M136.5,1016l-4.7-6.8h-0.3h-4.9v6.8h-5.7v-24.5h10.6c2.2,0,4,0.4,5.6,1.1c1.6,0.7,2.8,1.8,3.7,3.1
	c0.9,1.3,1.3,2.9,1.3,4.7s-0.4,3.4-1.3,4.7c-0.9,1.3-2.1,2.3-3.7,3l5.5,7.9H136.5z M136.4,1000.4c0-1.4-0.4-2.4-1.3-3.2
	c-0.9-0.7-2.2-1.1-3.9-1.1h-4.6v8.5h4.6c1.7,0,3-0.4,3.9-1.1C136,1002.8,136.4,1001.7,136.4,1000.4z M165.2,1011.5v4.5h-19v-24.5
	h18.5v4.5h-12.9v5.3h11.4v4.4h-11.4v5.7H165.2z M180.9,1016.4c-2.5,0-4.8-0.5-6.8-1.6c-2-1.1-3.6-2.6-4.8-4.5
	c-1.1-1.9-1.7-4.1-1.7-6.5s0.6-4.6,1.7-6.5c1.2-1.9,2.8-3.4,4.8-4.5c2-1.1,4.3-1.6,6.8-1.6c2.1,0,4,0.4,5.7,1.1
	c1.7,0.7,3.2,1.8,4.3,3.2l-3.6,3.4c-1.7-1.9-3.7-2.9-6.2-2.9c-1.5,0-2.9,0.3-4.1,1c-1.2,0.7-2.1,1.6-2.8,2.8c-0.7,1.2-1,2.5-1,4.1
	s0.3,2.9,1,4.1c0.7,1.2,1.6,2.1,2.8,2.8c1.2,0.7,2.5,1,4.1,1c2.4,0,4.5-1,6.2-2.9l3.6,3.4c-1.2,1.4-2.6,2.5-4.3,3.3
	C185,1016,183,1016.4,180.9,1016.4z M194.4,991.5h5.7v24.5h-5.7V991.5z M216.1,991.5c2.2,0,4,0.4,5.6,1.1c1.6,0.7,2.8,1.8,3.7,3.1
	c0.9,1.3,1.3,2.9,1.3,4.7c0,1.8-0.4,3.4-1.3,4.7c-0.9,1.3-2.1,2.4-3.7,3.1c-1.6,0.7-3.5,1-5.6,1h-4.9v6.8h-5.7v-24.5H216.1z
	 M215.7,1004.6c1.7,0,3-0.4,3.9-1.1c0.9-0.8,1.3-1.8,1.3-3.1c0-1.4-0.4-2.4-1.3-3.2c-0.9-0.7-2.2-1.1-3.9-1.1h-4.6v8.5H215.7z
	 M230.3,991.5h5.7v24.5h-5.7V991.5z M260.3,1011.5v4.5h-19v-24.5h18.5v4.5H247v5.3h11.4v4.4H247v5.7H260.3z M286.9,991.5v24.5h-4.7
	l-12.2-14.9v14.9h-5.6v-24.5h4.7l12.2,14.9v-14.9H286.9z M297.3,996.1h-7.8v-4.6h21.4v4.6H303v19.9h-5.7V996.1z M322.9,991.5H334
	c2.7,0,5,0.5,7,1.5c2.1,1,3.6,2.4,4.8,4.3c1.1,1.8,1.7,4,1.7,6.4s-0.6,4.6-1.7,6.4c-1.1,1.8-2.7,3.3-4.8,4.3c-2,1-4.4,1.5-7,1.5
	h-11.1V991.5z M333.8,1011.3c2.5,0,4.4-0.7,5.8-2c1.5-1.4,2.2-3.2,2.2-5.6s-0.7-4.2-2.2-5.5c-1.4-1.4-3.4-2.1-5.8-2.1h-5.2v15.2
	H333.8z M370.4,1011.5v4.5h-19v-24.5h18.5v4.5H357v5.3h11.4v4.4H357v5.7H370.4z M379.5,996.1h-7.8v-4.6H393v4.6h-7.8v19.9h-5.7
	V996.1z M410.5,1010.8h-11.4l-2.2,5.2h-5.8l10.9-24.5h5.6l11,24.5h-6L410.5,1010.8z M408.7,1006.4l-3.9-9.4l-3.9,9.4H408.7z
	 M420.8,991.5h5.7v24.5h-5.7V991.5z M431.8,991.5h5.7v19.9h12.3v4.6h-18V991.5z M460.4,1016.4c-1.9,0-3.8-0.3-5.6-0.8
	c-1.8-0.5-3.2-1.2-4.3-2.1l1.9-4.3c1.1,0.8,2.3,1.4,3.7,1.9c1.4,0.5,2.9,0.7,4.3,0.7c1.6,0,2.8-0.2,3.6-0.7c0.8-0.5,1.2-1.1,1.2-1.9
	c0-0.6-0.2-1.1-0.7-1.4c-0.4-0.4-1-0.7-1.8-1c-0.7-0.2-1.7-0.5-2.9-0.8c-1.9-0.4-3.4-0.9-4.6-1.3c-1.2-0.4-2.2-1.2-3.1-2.1
	c-0.8-1-1.3-2.3-1.3-3.9c0-1.4,0.4-2.7,1.2-3.9c0.8-1.2,1.9-2.1,3.5-2.8c1.6-0.7,3.5-1,5.7-1c1.6,0,3.1,0.2,4.6,0.6
	c1.5,0.4,2.8,0.9,3.9,1.6l-1.8,4.3c-2.3-1.3-4.5-1.9-6.8-1.9c-1.6,0-2.8,0.3-3.5,0.8c-0.7,0.5-1.1,1.2-1.1,2c0,0.8,0.4,1.5,1.3,1.9
	c0.9,0.4,2.2,0.8,4,1.2c1.9,0.4,3.4,0.9,4.6,1.3s2.2,1.1,3,2.1c0.9,1,1.3,2.2,1.3,3.9c0,1.4-0.4,2.7-1.2,3.8
	c-0.8,1.2-1.9,2.1-3.5,2.7C464.5,1016.1,462.6,1016.4,460.4,1016.4z M487.7,1022.8c-1.4-2.1-2.5-4.6-3.3-7.4c-0.7-2.8-1.1-5.8-1.1-9
	c0-3.2,0.4-6.2,1.1-9c0.8-2.8,1.9-5.3,3.3-7.4h5.2c-1.5,2.6-2.5,5.2-3.2,7.9c-0.7,2.7-1,5.5-1,8.5c0,3,0.3,5.8,1,8.5
	c0.7,2.7,1.8,5.3,3.2,7.9H487.7z M506.4,991.5c2.2,0,4,0.4,5.6,1.1c1.6,0.7,2.8,1.8,3.7,3.1c0.9,1.3,1.3,2.9,1.3,4.7
	c0,1.8-0.4,3.4-1.3,4.7c-0.9,1.3-2.1,2.4-3.7,3.1c-1.6,0.7-3.5,1-5.6,1h-4.9v6.8h-5.7v-24.5H506.4z M506.1,1004.6
	c1.7,0,3-0.4,3.9-1.1c0.9-0.8,1.3-1.8,1.3-3.1c0-1.4-0.4-2.4-1.3-3.2c-0.9-0.7-2.2-1.1-3.9-1.1h-4.6v8.5H506.1z M539.6,1011.5v4.5
	h-19v-24.5h18.5v4.5h-12.9v5.3h11.4v4.4h-11.4v5.7H539.6z M566.2,991.5v24.5h-4.7l-12.2-14.9v14.9h-5.6v-24.5h4.7l12.2,14.9v-14.9
	H566.2z M590.5,1011.5v4.5h-19v-24.5H590v4.5h-12.9v5.3h11.4v4.4h-11.4v5.7H590.5z M610.2,1016l-4.7-6.8h-0.3h-4.9v6.8h-5.7v-24.5
	h10.6c2.2,0,4,0.4,5.6,1.1c1.6,0.7,2.8,1.8,3.7,3.1c0.9,1.3,1.3,2.9,1.3,4.7s-0.4,3.4-1.3,4.7c-0.9,1.3-2.1,2.3-3.7,3l5.5,7.9H610.2
	z M610.1,1000.4c0-1.4-0.4-2.4-1.3-3.2c-0.9-0.7-2.2-1.1-3.9-1.1h-4.6v8.5h4.6c1.7,0,3-0.4,3.9-1.1
	C609.6,1002.8,610.1,1001.7,610.1,1000.4z M619.9,991.5h5.7v24.5h-5.7V991.5z M653.2,1016l0-14.7l-7.2,12.1h-2.6l-7.2-11.8v14.4
	h-5.3v-24.5h4.7l9.2,15.2l9-15.2h4.7l0.1,24.5H653.2z M680,1010.8h-11.4l-2.2,5.2h-5.8l10.9-24.5h5.6l11,24.5h-6L680,1010.8z
	 M678.2,1006.4l-3.9-9.4l-3.9,9.4H678.2z M687.7,1022.8c1.5-2.6,2.5-5.2,3.2-7.9c0.7-2.7,1.1-5.5,1.1-8.5c0-3-0.4-5.8-1.1-8.5
	c-0.7-2.7-1.8-5.3-3.2-7.9h5.2c1.4,2.1,2.5,4.5,3.3,7.3c0.8,2.8,1.2,5.8,1.2,9c0,3.2-0.4,6.2-1.1,9c-0.7,2.8-1.8,5.2-3.3,7.3H687.7z
	"/>
<path d="M1852.9,1593.4c1.6,0.5,2.8,1.4,3.8,2.6c0.9,1.2,1.4,2.6,1.4,4.4c0,2.5-1,4.3-2.9,5.7c-1.9,1.3-4.7,2-8.3,2h-14.5v-28h13.7
	c3.4,0,6,0.7,7.8,2c1.8,1.3,2.8,3.1,2.8,5.3c0,1.4-0.3,2.6-1,3.6C1855,1592,1854.1,1592.8,1852.9,1593.4z M1838.8,1584.9v6.6h6.4
	c1.6,0,2.8-0.3,3.6-0.8c0.8-0.6,1.2-1.4,1.2-2.5c0-1.1-0.4-1.9-1.2-2.4c-0.8-0.6-2-0.8-3.6-0.8H1838.8z M1846.3,1603.1
	c1.7,0,3-0.3,3.8-0.8c0.9-0.6,1.3-1.4,1.3-2.6c0-2.3-1.7-3.5-5.2-3.5h-7.6v6.9H1846.3z M1876,1608.5c-2.9,0-5.5-0.6-7.9-1.9
	c-2.3-1.2-4.2-3-5.5-5.2c-1.3-2.2-2-4.7-2-7.4s0.7-5.2,2-7.4c1.3-2.2,3.2-3.9,5.5-5.2c2.3-1.2,5-1.9,7.9-1.9c2.9,0,5.5,0.6,7.8,1.9
	c2.3,1.2,4.1,3,5.5,5.2c1.3,2.2,2,4.7,2,7.4s-0.7,5.2-2,7.4c-1.3,2.2-3.2,3.9-5.5,5.2C1881.5,1607.8,1878.9,1608.5,1876,1608.5z
	 M1876,1603c1.7,0,3.1-0.4,4.5-1.1c1.3-0.8,2.4-1.8,3.1-3.2c0.8-1.4,1.2-2.9,1.2-4.6s-0.4-3.3-1.2-4.6c-0.8-1.4-1.8-2.4-3.1-3.2
	c-1.3-0.8-2.8-1.2-4.5-1.2c-1.7,0-3.2,0.4-4.5,1.2c-1.3,0.8-2.4,1.8-3.2,3.2c-0.8,1.4-1.1,2.9-1.1,4.6s0.4,3.3,1.1,4.6
	c0.8,1.4,1.8,2.4,3.2,3.2C1872.8,1602.6,1874.3,1603,1876,1603z M1912.3,1608l-6.8-9.7l-6.6,9.7h-7.4l10.4-14.2l-9.8-13.8h7.4
	l6.4,9.1l6.3-9.1h7l-9.8,13.5l10.4,14.5H1912.3z"/>
<path fill="#212121" d="M139.2,373v21h-2.5l-12.6-15.7V394h-3v-21h2.5l12.6,15.7V373H139.2z M150.5,378c2.2,0,3.9,0.5,5,1.6
	c1.2,1.1,1.8,2.7,1.8,4.8v9.6h-2.7v-2.1c-0.5,0.7-1.2,1.3-2.1,1.7c-0.9,0.4-1.9,0.6-3.2,0.6c-1.8,0-3.2-0.4-4.3-1.3
	c-1.1-0.9-1.6-2-1.6-3.4s0.5-2.5,1.5-3.4c1-0.9,2.6-1.3,4.9-1.3h4.6v-0.6c0-1.2-0.4-2.2-1.1-2.9s-1.8-1-3.2-1
	c-0.9,0-1.9,0.2-2.8,0.5c-0.9,0.3-1.7,0.7-2.3,1.2l-1.2-2.2c0.8-0.7,1.8-1.2,2.9-1.5C148,378.1,149.2,378,150.5,378z M149.8,392
	c1.1,0,2.1-0.2,2.9-0.7c0.8-0.5,1.4-1.2,1.7-2.1v-2.2H150c-2.4,0-3.7,0.8-3.7,2.5c0,0.8,0.3,1.4,0.9,1.9
	C147.9,391.7,148.7,392,149.8,392z M182.1,378c2,0,3.6,0.6,4.7,1.7c1.2,1.2,1.8,2.9,1.8,5.2v9.1h-2.9v-8.8c0-1.5-0.4-2.7-1.1-3.5
	c-0.7-0.8-1.7-1.2-3-1.2c-1.5,0-2.6,0.5-3.5,1.4c-0.9,0.9-1.3,2.2-1.3,3.9v8.2H174v-8.8c0-1.5-0.4-2.7-1.1-3.5
	c-0.7-0.8-1.7-1.2-3-1.2c-1.5,0-2.6,0.5-3.5,1.4c-0.9,0.9-1.3,2.2-1.3,3.9v8.2h-2.9v-15.9h2.8v2.4c0.6-0.8,1.3-1.4,2.3-1.9
	c0.9-0.4,2-0.7,3.2-0.7c1.2,0,2.3,0.2,3.3,0.8c1,0.5,1.7,1.2,2.2,2.2c0.6-0.9,1.4-1.6,2.5-2.2C179.6,378.2,180.8,378,182.1,378z
	 M208,386.1c0,0.2,0,0.5-0.1,0.9h-12.9c0.2,1.4,0.8,2.5,1.8,3.4c1.1,0.8,2.4,1.3,3.9,1.3c1.9,0,3.4-0.6,4.6-1.9l1.6,1.9
	c-0.7,0.8-1.6,1.5-2.7,1.9c-1.1,0.4-2.2,0.7-3.6,0.7c-1.7,0-3.2-0.3-4.5-1c-1.3-0.7-2.3-1.7-3-2.9c-0.7-1.2-1.1-2.6-1.1-4.2
	c0-1.5,0.3-2.9,1-4.2c0.7-1.2,1.6-2.2,2.8-2.9c1.2-0.7,2.6-1,4.1-1c1.5,0,2.9,0.3,4.1,1c1.2,0.7,2.1,1.6,2.8,2.9
	C207.7,383.1,208,384.5,208,386.1z M200.2,380.4c-1.4,0-2.5,0.4-3.5,1.3c-0.9,0.8-1.5,1.9-1.6,3.3h10.2c-0.2-1.3-0.7-2.4-1.6-3.3
	C202.7,380.8,201.6,380.4,200.2,380.4z M212.4,382.1c-0.6,0-1-0.2-1.4-0.6c-0.4-0.4-0.6-0.9-0.6-1.5c0-0.6,0.2-1.1,0.6-1.4
	c0.4-0.4,0.9-0.6,1.4-0.6s1,0.2,1.4,0.6c0.4,0.4,0.6,0.9,0.6,1.5c0,0.6-0.2,1.1-0.6,1.5C213.4,381.9,212.9,382.1,212.4,382.1z
	 M212.4,394.2c-0.6,0-1-0.2-1.4-0.6c-0.4-0.4-0.6-0.9-0.6-1.5c0-0.6,0.2-1.1,0.6-1.4c0.4-0.4,0.9-0.6,1.4-0.6s1,0.2,1.4,0.6
	c0.4,0.4,0.6,0.9,0.6,1.5c0,0.6-0.2,1.1-0.6,1.5C213.4,394,212.9,394.2,212.4,394.2z"/>
<path fill="#212121" d="M139.2,1082v21h-2.5l-12.6-15.7v15.7h-3v-21h2.5l12.6,15.7V1082H139.2z M150.5,1086.9c2.2,0,3.9,0.5,5,1.6
	c1.2,1.1,1.8,2.7,1.8,4.8v9.6h-2.7v-2.1c-0.5,0.7-1.2,1.3-2.1,1.7c-0.9,0.4-1.9,0.6-3.2,0.6c-1.8,0-3.2-0.4-4.3-1.3
	c-1.1-0.9-1.6-2-1.6-3.4s0.5-2.5,1.5-3.4c1-0.9,2.6-1.3,4.9-1.3h4.6v-0.6c0-1.2-0.4-2.2-1.1-2.8c-0.7-0.7-1.8-1-3.2-1
	c-0.9,0-1.9,0.2-2.8,0.5c-0.9,0.3-1.7,0.7-2.3,1.2l-1.2-2.2c0.8-0.7,1.8-1.2,2.9-1.5C148,1087.1,149.2,1086.9,150.5,1086.9z
	 M149.8,1101c1.1,0,2.1-0.2,2.9-0.7c0.8-0.5,1.4-1.2,1.7-2.1v-2.2H150c-2.4,0-3.7,0.8-3.7,2.5c0,0.8,0.3,1.4,0.9,1.9
	C147.9,1100.7,148.7,1101,149.8,1101z M182.1,1086.9c2,0,3.6,0.6,4.7,1.7c1.2,1.2,1.8,2.9,1.8,5.2v9.2h-2.9v-8.8
	c0-1.5-0.4-2.7-1.1-3.5c-0.7-0.8-1.7-1.2-3-1.2c-1.5,0-2.6,0.5-3.5,1.4c-0.9,0.9-1.3,2.2-1.3,3.9v8.2H174v-8.8
	c0-1.5-0.4-2.7-1.1-3.5c-0.7-0.8-1.7-1.2-3-1.2c-1.5,0-2.6,0.5-3.5,1.4c-0.9,0.9-1.3,2.2-1.3,3.9v8.2h-2.9v-15.9h2.8v2.4
	c0.6-0.8,1.3-1.4,2.3-1.9c0.9-0.4,2-0.7,3.2-0.7c1.2,0,2.3,0.2,3.3,0.8c1,0.5,1.7,1.2,2.2,2.2c0.6-0.9,1.4-1.6,2.5-2.2
	C179.6,1087.2,180.8,1086.9,182.1,1086.9z M208,1095.1c0,0.2,0,0.5-0.1,0.9h-12.9c0.2,1.4,0.8,2.5,1.8,3.4c1.1,0.8,2.4,1.3,3.9,1.3
	c1.9,0,3.4-0.6,4.6-1.9l1.6,1.9c-0.7,0.8-1.6,1.5-2.7,1.9c-1.1,0.4-2.2,0.7-3.6,0.7c-1.7,0-3.2-0.3-4.5-1c-1.3-0.7-2.3-1.7-3-2.9
	c-0.7-1.2-1.1-2.6-1.1-4.2c0-1.5,0.3-2.9,1-4.2c0.7-1.2,1.6-2.2,2.8-2.9c1.2-0.7,2.6-1.1,4.1-1.1c1.5,0,2.9,0.4,4.1,1.1
	c1.2,0.7,2.1,1.6,2.8,2.9C207.7,1092.1,208,1093.5,208,1095.1z M200.2,1089.4c-1.4,0-2.5,0.4-3.5,1.3c-0.9,0.8-1.5,1.9-1.6,3.3h10.2
	c-0.2-1.3-0.7-2.4-1.6-3.3C202.7,1089.8,201.6,1089.4,200.2,1089.4z M212.4,1091.1c-0.6,0-1-0.2-1.4-0.6c-0.4-0.4-0.6-0.9-0.6-1.5
	c0-0.6,0.2-1.1,0.6-1.4c0.4-0.4,0.9-0.6,1.4-0.6s1,0.2,1.4,0.6c0.4,0.4,0.6,0.9,0.6,1.5s-0.2,1.1-0.6,1.5
	C213.4,1090.9,212.9,1091.1,212.4,1091.1z M212.4,1103.2c-0.6,0-1-0.2-1.4-0.6c-0.4-0.4-0.6-0.9-0.6-1.5c0-0.6,0.2-1.1,0.6-1.4
	c0.4-0.4,0.9-0.6,1.4-0.6s1,0.2,1.4,0.6c0.4,0.4,0.6,0.9,0.6,1.5s-0.2,1.1-0.6,1.5C213.4,1103,212.9,1103.2,212.4,1103.2z"/>
<path fill="#212121" d="M134.5,506.8h-11.2l-2.3,5.2H118l9.5-21h3l9.5,21h-3.2L134.5,506.8z M133.5,504.4l-4.5-10.3l-4.5,10.3H133.5
	z M157.2,489.7V512h-2.8v-2.5c-0.6,0.9-1.5,1.5-2.4,2c-1,0.5-2.1,0.7-3.2,0.7c-1.5,0-2.9-0.3-4.1-1c-1.2-0.7-2.2-1.6-2.9-2.9
	c-0.7-1.2-1-2.7-1-4.3c0-1.6,0.3-3,1-4.2c0.7-1.2,1.7-2.2,2.9-2.9c1.2-0.7,2.6-1,4.1-1c1.1,0,2.2,0.2,3.1,0.7c1,0.4,1.8,1.1,2.4,1.9
	v-8.8H157.2z M149,509.7c1,0,1.9-0.2,2.7-0.7c0.8-0.5,1.5-1.1,1.9-2c0.5-0.9,0.7-1.8,0.7-2.9c0-1.1-0.2-2.1-0.7-2.9
	c-0.5-0.9-1.1-1.5-1.9-2c-0.8-0.5-1.7-0.7-2.7-0.7c-1,0-1.9,0.2-2.8,0.7c-0.8,0.5-1.4,1.1-1.9,2c-0.5,0.8-0.7,1.8-0.7,2.9
	c0,1.1,0.2,2.1,0.7,2.9c0.5,0.8,1.1,1.5,1.9,2C147.1,509.4,148,509.7,149,509.7z M177.3,489.7V512h-2.8v-2.5c-0.6,0.9-1.4,1.5-2.4,2
	c-1,0.5-2.1,0.7-3.2,0.7c-1.5,0-2.9-0.3-4.1-1s-2.2-1.6-2.9-2.9c-0.7-1.2-1-2.7-1-4.3c0-1.6,0.3-3,1-4.2c0.7-1.2,1.7-2.2,2.9-2.9
	s2.6-1,4.1-1c1.1,0,2.2,0.2,3.2,0.7c1,0.4,1.8,1.1,2.4,1.9v-8.8H177.3z M169.1,509.7c1,0,1.9-0.2,2.7-0.7c0.8-0.5,1.5-1.1,1.9-2
	c0.5-0.9,0.7-1.8,0.7-2.9c0-1.1-0.2-2.1-0.7-2.9c-0.5-0.9-1.1-1.5-1.9-2c-0.8-0.5-1.7-0.7-2.7-0.7c-1,0-1.9,0.2-2.8,0.7
	c-0.8,0.5-1.4,1.1-1.9,2c-0.5,0.8-0.7,1.8-0.7,2.9c0,1.1,0.2,2.1,0.7,2.9c0.5,0.8,1.1,1.5,1.9,2C167.1,509.4,168,509.7,169.1,509.7z
	 M185.1,498.8c0.5-0.9,1.2-1.6,2.2-2.1c1-0.5,2.2-0.7,3.6-0.7v2.8c-0.2,0-0.4,0-0.7,0c-1.6,0-2.8,0.5-3.7,1.4
	c-0.9,0.9-1.3,2.2-1.3,4v7.9h-2.9v-15.9h2.8V498.8z M208.3,504.1c0,0.2,0,0.5-0.1,0.9h-12.9c0.2,1.4,0.8,2.5,1.8,3.4
	c1.1,0.8,2.4,1.3,3.9,1.3c1.9,0,3.4-0.6,4.6-1.9l1.6,1.9c-0.7,0.8-1.6,1.5-2.7,1.9c-1.1,0.4-2.2,0.7-3.6,0.7c-1.7,0-3.2-0.3-4.5-1
	c-1.3-0.7-2.3-1.7-3-2.9c-0.7-1.2-1.1-2.6-1.1-4.2c0-1.5,0.3-2.9,1-4.2c0.7-1.2,1.7-2.2,2.9-2.9c1.2-0.7,2.6-1,4.1-1s2.9,0.3,4.1,1
	c1.2,0.7,2.1,1.6,2.8,2.9C207.9,501.1,208.3,502.5,208.3,504.1z M200.4,498.4c-1.4,0-2.5,0.4-3.5,1.3c-0.9,0.8-1.5,1.9-1.6,3.3h10.2
	c-0.2-1.3-0.7-2.4-1.7-3.3C202.9,498.8,201.8,498.4,200.4,498.4z M216.5,512.2c-1.3,0-2.6-0.2-3.8-0.5c-1.2-0.4-2.1-0.8-2.8-1.4
	l1.2-2.3c0.7,0.5,1.6,0.9,2.6,1.2c1,0.3,2,0.5,3,0.5c2.5,0,3.8-0.7,3.8-2.2c0-0.5-0.2-0.9-0.5-1.1c-0.3-0.3-0.8-0.5-1.3-0.6
	c-0.5-0.1-1.2-0.3-2.2-0.5c-1.3-0.2-2.3-0.4-3.2-0.7c-0.8-0.3-1.5-0.7-2.1-1.3c-0.6-0.6-0.9-1.5-0.9-2.6c0-1.4,0.6-2.6,1.8-3.5
	c1.2-0.9,2.8-1.3,4.8-1.3c1.1,0,2.1,0.1,3.2,0.4c1.1,0.3,1.9,0.6,2.6,1.1l-1.2,2.3c-1.3-0.8-2.8-1.3-4.6-1.3c-1.2,0-2.1,0.2-2.8,0.6
	c-0.6,0.4-1,0.9-1,1.6c0,0.5,0.2,0.9,0.5,1.2c0.4,0.3,0.8,0.5,1.3,0.7c0.5,0.1,1.3,0.3,2.2,0.5c1.3,0.2,2.3,0.5,3.1,0.7
	c0.8,0.2,1.5,0.7,2,1.3c0.6,0.6,0.8,1.4,0.8,2.5c0,1.4-0.6,2.6-1.9,3.5C220.3,511.8,218.6,512.2,216.5,512.2z M231.1,512.2
	c-1.3,0-2.6-0.2-3.8-0.5c-1.2-0.4-2.1-0.8-2.8-1.4l1.2-2.3c0.7,0.5,1.6,0.9,2.6,1.2c1,0.3,2,0.5,3,0.5c2.5,0,3.8-0.7,3.8-2.2
	c0-0.5-0.2-0.9-0.5-1.1c-0.3-0.3-0.8-0.5-1.3-0.6c-0.5-0.1-1.2-0.3-2.2-0.5c-1.3-0.2-2.3-0.4-3.1-0.7c-0.8-0.3-1.5-0.7-2.1-1.3
	c-0.6-0.6-0.9-1.5-0.9-2.6c0-1.4,0.6-2.6,1.8-3.5c1.2-0.9,2.8-1.3,4.8-1.3c1.1,0,2.1,0.1,3.2,0.4s1.9,0.6,2.6,1.1l-1.2,2.3
	c-1.3-0.8-2.8-1.3-4.6-1.3c-1.2,0-2.2,0.2-2.8,0.6c-0.6,0.4-1,0.9-1,1.6c0,0.5,0.2,0.9,0.5,1.2c0.4,0.3,0.8,0.5,1.3,0.7
	c0.5,0.1,1.3,0.3,2.2,0.5c1.3,0.2,2.3,0.5,3.1,0.7c0.8,0.2,1.5,0.7,2,1.3c0.6,0.6,0.8,1.4,0.8,2.5c0,1.4-0.6,2.6-1.9,3.5
	C234.9,511.8,233.2,512.2,231.1,512.2z M241.9,500.1c-0.6,0-1-0.2-1.4-0.6c-0.4-0.4-0.6-0.9-0.6-1.5c0-0.6,0.2-1.1,0.6-1.4
	c0.4-0.4,0.9-0.6,1.4-0.6c0.6,0,1,0.2,1.4,0.6c0.4,0.4,0.6,0.9,0.6,1.5c0,0.6-0.2,1.1-0.6,1.5C242.9,499.9,242.4,500.1,241.9,500.1z
	 M241.9,512.2c-0.6,0-1-0.2-1.4-0.6c-0.4-0.4-0.6-0.9-0.6-1.5c0-0.6,0.2-1.1,0.6-1.4c0.4-0.4,0.9-0.6,1.4-0.6c0.6,0,1,0.2,1.4,0.6
	c0.4,0.4,0.6,0.9,0.6,1.5c0,0.6-0.2,1.1-0.6,1.5C242.9,512,242.4,512.2,241.9,512.2z"/>
<path fill="#212121" d="M134.5,1215.8h-11.2l-2.3,5.2H118l9.5-21h3l9.5,21h-3.2L134.5,1215.8z M133.5,1213.3l-4.5-10.3l-4.5,10.3
	H133.5z M157.2,1198.7v22.3h-2.8v-2.5c-0.6,0.9-1.5,1.6-2.4,2s-2.1,0.7-3.2,0.7c-1.5,0-2.9-0.3-4.1-1c-1.2-0.7-2.2-1.6-2.9-2.8
	c-0.7-1.2-1-2.7-1-4.3c0-1.6,0.3-3,1-4.2c0.7-1.2,1.7-2.2,2.9-2.8c1.2-0.7,2.6-1,4.1-1c1.1,0,2.2,0.2,3.1,0.7c1,0.4,1.8,1.1,2.4,1.9
	v-8.8H157.2z M149,1218.7c1,0,1.9-0.2,2.7-0.7c0.8-0.5,1.5-1.1,1.9-2c0.5-0.9,0.7-1.8,0.7-2.9c0-1.1-0.2-2.1-0.7-2.9
	c-0.5-0.9-1.1-1.5-1.9-2c-0.8-0.5-1.7-0.7-2.7-0.7c-1,0-1.9,0.2-2.8,0.7c-0.8,0.5-1.4,1.1-1.9,2c-0.5,0.8-0.7,1.8-0.7,2.9
	c0,1.1,0.2,2.1,0.7,2.9c0.5,0.8,1.1,1.5,1.9,2C147.1,1218.4,148,1218.7,149,1218.7z M177.3,1198.7v22.3h-2.8v-2.5
	c-0.6,0.9-1.4,1.6-2.4,2s-2.1,0.7-3.2,0.7c-1.5,0-2.9-0.3-4.1-1c-1.2-0.7-2.2-1.6-2.9-2.8c-0.7-1.2-1-2.7-1-4.3c0-1.6,0.3-3,1-4.2
	c0.7-1.2,1.7-2.2,2.9-2.8c1.2-0.7,2.6-1,4.1-1c1.1,0,2.2,0.2,3.2,0.7c1,0.4,1.8,1.1,2.4,1.9v-8.8H177.3z M169.1,1218.7
	c1,0,1.9-0.2,2.7-0.7c0.8-0.5,1.5-1.1,1.9-2c0.5-0.9,0.7-1.8,0.7-2.9c0-1.1-0.2-2.1-0.7-2.9c-0.5-0.9-1.1-1.5-1.9-2
	c-0.8-0.5-1.7-0.7-2.7-0.7c-1,0-1.9,0.2-2.8,0.7c-0.8,0.5-1.4,1.1-1.9,2c-0.5,0.8-0.7,1.8-0.7,2.9c0,1.1,0.2,2.1,0.7,2.9
	c0.5,0.8,1.1,1.5,1.9,2C167.1,1218.4,168,1218.7,169.1,1218.7z M185.1,1207.8c0.5-0.9,1.2-1.6,2.2-2.1c1-0.5,2.2-0.7,3.6-0.7v2.8
	c-0.2,0-0.4,0-0.7,0c-1.6,0-2.8,0.5-3.7,1.4c-0.9,0.9-1.3,2.2-1.3,4v7.9h-2.9v-15.9h2.8V1207.8z M208.3,1213.1c0,0.2,0,0.5-0.1,0.9
	h-12.9c0.2,1.4,0.8,2.5,1.8,3.4c1.1,0.8,2.4,1.3,3.9,1.3c1.9,0,3.4-0.6,4.6-1.9l1.6,1.9c-0.7,0.8-1.6,1.5-2.7,1.9
	c-1.1,0.4-2.2,0.7-3.6,0.7c-1.7,0-3.2-0.3-4.5-1c-1.3-0.7-2.3-1.7-3-2.9c-0.7-1.2-1.1-2.6-1.1-4.2c0-1.5,0.3-2.9,1-4.2
	c0.7-1.2,1.7-2.2,2.9-2.9c1.2-0.7,2.6-1.1,4.1-1.1s2.9,0.4,4.1,1.1c1.2,0.7,2.1,1.6,2.8,2.9C207.9,1210.1,208.3,1211.5,208.3,1213.1
	z M200.4,1207.4c-1.4,0-2.5,0.4-3.5,1.3c-0.9,0.8-1.5,1.9-1.6,3.3h10.2c-0.2-1.3-0.7-2.4-1.7-3.3
	C202.9,1207.8,201.8,1207.4,200.4,1207.4z M216.5,1221.2c-1.3,0-2.6-0.2-3.8-0.5c-1.2-0.4-2.1-0.8-2.8-1.4l1.2-2.3
	c0.7,0.5,1.6,0.9,2.6,1.2s2,0.4,3,0.4c2.5,0,3.8-0.7,3.8-2.2c0-0.5-0.2-0.9-0.5-1.1s-0.8-0.5-1.3-0.6c-0.5-0.1-1.2-0.3-2.2-0.5
	c-1.3-0.2-2.3-0.4-3.2-0.7c-0.8-0.3-1.5-0.7-2.1-1.3s-0.9-1.5-0.9-2.6c0-1.4,0.6-2.6,1.8-3.4c1.2-0.9,2.8-1.3,4.8-1.3
	c1.1,0,2.1,0.1,3.2,0.4c1.1,0.3,1.9,0.6,2.6,1.1l-1.2,2.3c-1.3-0.8-2.8-1.3-4.6-1.3c-1.2,0-2.1,0.2-2.8,0.6s-1,0.9-1,1.6
	c0,0.5,0.2,0.9,0.5,1.2c0.4,0.3,0.8,0.5,1.3,0.7c0.5,0.1,1.3,0.3,2.2,0.5c1.3,0.2,2.3,0.5,3.1,0.7c0.8,0.2,1.5,0.7,2,1.3
	c0.6,0.6,0.8,1.4,0.8,2.5c0,1.4-0.6,2.6-1.9,3.5C220.3,1220.8,218.6,1221.2,216.5,1221.2z M231.1,1221.2c-1.3,0-2.6-0.2-3.8-0.5
	c-1.2-0.4-2.1-0.8-2.8-1.4l1.2-2.3c0.7,0.5,1.6,0.9,2.6,1.2s2,0.4,3,0.4c2.5,0,3.8-0.7,3.8-2.2c0-0.5-0.2-0.9-0.5-1.1
	c-0.3-0.3-0.8-0.5-1.3-0.6c-0.5-0.1-1.2-0.3-2.2-0.5c-1.3-0.2-2.3-0.4-3.1-0.7c-0.8-0.3-1.5-0.7-2.1-1.3s-0.9-1.5-0.9-2.6
	c0-1.4,0.6-2.6,1.8-3.4c1.2-0.9,2.8-1.3,4.8-1.3c1.1,0,2.1,0.1,3.2,0.4s1.9,0.6,2.6,1.1l-1.2,2.3c-1.3-0.8-2.8-1.3-4.6-1.3
	c-1.2,0-2.2,0.2-2.8,0.6s-1,0.9-1,1.6c0,0.5,0.2,0.9,0.5,1.2c0.4,0.3,0.8,0.5,1.3,0.7c0.5,0.1,1.3,0.3,2.2,0.5
	c1.3,0.2,2.3,0.5,3.1,0.7c0.8,0.2,1.5,0.7,2,1.3c0.6,0.6,0.8,1.4,0.8,2.5c0,1.4-0.6,2.6-1.9,3.5
	C234.9,1220.8,233.2,1221.2,231.1,1221.2z M241.9,1209.1c-0.6,0-1-0.2-1.4-0.6c-0.4-0.4-0.6-0.9-0.6-1.5c0-0.6,0.2-1.1,0.6-1.4
	c0.4-0.4,0.9-0.6,1.4-0.6c0.6,0,1,0.2,1.4,0.6s0.6,0.9,0.6,1.5s-0.2,1.1-0.6,1.5C242.9,1208.9,242.4,1209.1,241.9,1209.1z
	 M241.9,1221.2c-0.6,0-1-0.2-1.4-0.6c-0.4-0.4-0.6-0.9-0.6-1.5c0-0.6,0.2-1.1,0.6-1.4c0.4-0.4,0.9-0.6,1.4-0.6c0.6,0,1,0.2,1.4,0.6
	s0.6,0.9,0.6,1.5s-0.2,1.1-0.6,1.5C242.9,1221,242.4,1221.2,241.9,1221.2z"/>
<path fill="#212121" d="M129.3,845c2.7,0,4.9,0.7,6.4,2c1.6,1.3,2.3,3.1,2.3,5.4c0,2.3-0.8,4.1-2.3,5.4c-1.6,1.3-3.7,2-6.4,2h-5.2
	v6.4h-3v-21H129.3z M129.2,857c1.9,0,3.4-0.4,4.4-1.2c1-0.8,1.5-2,1.5-3.5s-0.5-2.7-1.5-3.5c-1-0.8-2.5-1.2-4.4-1.2h-5.1v9.4H129.2z
	 M150.5,850c2,0,3.6,0.6,4.8,1.8c1.2,1.2,1.8,2.9,1.8,5.1v9.2h-2.9v-8.8c0-1.5-0.4-2.7-1.1-3.5c-0.7-0.8-1.8-1.2-3.2-1.2
	c-1.6,0-2.8,0.5-3.7,1.4c-0.9,0.9-1.4,2.2-1.4,3.9v8.2H142v-22.3h2.9v8.6c0.6-0.8,1.4-1.3,2.3-1.8C148.2,850.2,149.3,850,150.5,850z
	 M168.9,866.2c-1.6,0-3-0.3-4.3-1c-1.3-0.7-2.2-1.7-3-2.9c-0.7-1.2-1.1-2.6-1.1-4.2s0.4-3,1.1-4.2c0.7-1.2,1.7-2.2,3-2.9
	c1.3-0.7,2.7-1,4.3-1s3,0.3,4.2,1c1.3,0.7,2.2,1.6,2.9,2.9c0.7,1.2,1.1,2.6,1.1,4.2s-0.4,3-1.1,4.2c-0.7,1.2-1.7,2.2-2.9,2.9
	C171.9,865.8,170.5,866.2,168.9,866.2z M168.9,863.7c1,0,1.9-0.2,2.7-0.7c0.8-0.5,1.5-1.1,1.9-2c0.5-0.9,0.7-1.8,0.7-2.9
	c0-1.1-0.2-2.1-0.7-2.9c-0.5-0.9-1.1-1.5-1.9-2c-0.8-0.5-1.7-0.7-2.7-0.7s-1.9,0.2-2.8,0.7c-0.8,0.5-1.4,1.1-1.9,2
	c-0.5,0.8-0.7,1.8-0.7,2.9c0,1.1,0.2,2.1,0.7,2.9c0.5,0.8,1.1,1.5,1.9,2C167,863.4,167.9,863.7,168.9,863.7z M189.3,850
	c2,0,3.6,0.6,4.8,1.8c1.2,1.2,1.8,2.9,1.8,5.1v9.2H193v-8.8c0-1.5-0.4-2.7-1.1-3.5c-0.7-0.8-1.8-1.2-3.2-1.2c-1.6,0-2.8,0.5-3.7,1.4
	c-0.9,0.9-1.3,2.2-1.3,3.9v8.2h-2.9v-15.9h2.8v2.4c0.6-0.8,1.4-1.5,2.3-1.9C186.9,850.2,188,850,189.3,850z M215.3,858.1
	c0,0.2,0,0.5-0.1,0.9h-12.9c0.2,1.4,0.8,2.5,1.8,3.4c1.1,0.8,2.4,1.3,3.9,1.3c1.9,0,3.4-0.6,4.6-1.9l1.6,1.9
	c-0.7,0.8-1.6,1.5-2.7,1.9c-1.1,0.4-2.2,0.7-3.6,0.7c-1.7,0-3.2-0.3-4.5-1c-1.3-0.7-2.3-1.7-3-2.9c-0.7-1.2-1.1-2.6-1.1-4.2
	c0-1.5,0.3-2.9,1-4.2c0.7-1.2,1.7-2.2,2.9-2.9c1.2-0.7,2.6-1,4.1-1c1.5,0,2.9,0.3,4,1c1.2,0.7,2.1,1.6,2.8,2.9
	C215,855.1,215.3,856.5,215.3,858.1z M207.4,852.4c-1.4,0-2.5,0.4-3.5,1.3c-0.9,0.8-1.5,1.9-1.6,3.3h10.2c-0.2-1.3-0.7-2.4-1.6-3.3
	C210,852.8,208.8,852.4,207.4,852.4z M219.6,854.1c-0.6,0-1-0.2-1.4-0.6c-0.4-0.4-0.6-0.9-0.6-1.5c0-0.6,0.2-1.1,0.6-1.4
	c0.4-0.4,0.9-0.6,1.4-0.6s1,0.2,1.4,0.6c0.4,0.4,0.6,0.9,0.6,1.5c0,0.6-0.2,1.1-0.6,1.5C220.6,853.9,220.2,854.1,219.6,854.1z
	 M219.6,866.2c-0.6,0-1-0.2-1.4-0.6c-0.4-0.4-0.6-0.9-0.6-1.5c0-0.6,0.2-1.1,0.6-1.4c0.4-0.4,0.9-0.6,1.4-0.6s1,0.2,1.4,0.6
	c0.4,0.4,0.6,0.9,0.6,1.5c0,0.6-0.2,1.1-0.6,1.5C220.6,866,220.2,866.2,219.6,866.2z"/>
<path fill="#212121" d="M837.3,1555c2.7,0,4.9,0.7,6.4,1.9c1.6,1.3,2.3,3.1,2.3,5.4c0,2.3-0.8,4.1-2.3,5.4c-1.6,1.3-3.7,2-6.4,2
	h-5.2v6.4h-3v-21H837.3z M837.2,1567c1.9,0,3.3-0.4,4.3-1.2c1-0.8,1.5-2,1.5-3.5c0-1.5-0.5-2.7-1.5-3.5c-1-0.8-2.4-1.2-4.3-1.2h-5.1
	v9.4H837.2z M856.5,1576.2c-1.6,0-3-0.4-4.3-1.1s-2.2-1.7-3-2.9c-0.7-1.2-1-2.6-1-4.2c0-1.6,0.3-3,1-4.2c0.7-1.2,1.7-2.2,3-2.9
	c1.3-0.7,2.7-1.1,4.3-1.1s3,0.4,4.2,1.1c1.3,0.7,2.2,1.6,2.9,2.9c0.7,1.2,1.1,2.6,1.1,4.2c0,1.6-0.4,3-1.1,4.2
	c-0.7,1.2-1.7,2.2-2.9,2.9C859.5,1575.8,858,1576.2,856.5,1576.2z M856.5,1573.7c1,0,1.9-0.2,2.7-0.7c0.8-0.5,1.5-1.1,1.9-2
	c0.5-0.9,0.7-1.8,0.7-2.9c0-1.1-0.2-2.1-0.7-2.9c-0.5-0.9-1.1-1.5-1.9-2c-0.8-0.5-1.7-0.7-2.7-0.7s-1.9,0.2-2.8,0.7
	c-0.8,0.5-1.4,1.1-1.9,2c-0.5,0.8-0.7,1.8-0.7,2.9c0,1.1,0.2,2.1,0.7,2.9c0.5,0.8,1.1,1.5,1.9,2
	C854.5,1573.4,855.4,1573.7,856.5,1573.7z M872.9,1576.2c-1.3,0-2.6-0.2-3.8-0.5c-1.2-0.4-2.1-0.8-2.8-1.4l1.2-2.3
	c0.7,0.5,1.5,0.9,2.5,1.2s2,0.4,3,0.4c2.5,0,3.8-0.7,3.8-2.2c0-0.5-0.2-0.9-0.5-1.1s-0.8-0.5-1.3-0.6c-0.5-0.1-1.2-0.3-2.2-0.5
	c-1.3-0.2-2.3-0.4-3.1-0.7c-0.8-0.3-1.5-0.7-2.1-1.3c-0.6-0.6-0.9-1.5-0.9-2.6c0-1.4,0.6-2.6,1.8-3.4c1.2-0.9,2.8-1.3,4.8-1.3
	c1.1,0,2.1,0.1,3.2,0.4s1.9,0.6,2.6,1.1l-1.2,2.3c-1.3-0.8-2.8-1.3-4.6-1.3c-1.2,0-2.2,0.2-2.8,0.6c-0.6,0.4-1,0.9-1,1.6
	c0,0.5,0.2,0.9,0.5,1.2c0.4,0.3,0.8,0.5,1.3,0.7c0.5,0.1,1.3,0.3,2.2,0.5c1.3,0.2,2.3,0.5,3.1,0.7c0.8,0.2,1.5,0.7,2,1.3
	c0.6,0.6,0.8,1.4,0.8,2.5c0,1.4-0.6,2.6-1.9,3.5C876.7,1575.8,875,1576.2,872.9,1576.2z M891.9,1575.1c-0.4,0.4-0.9,0.6-1.6,0.8
	c-0.6,0.2-1.3,0.3-1.9,0.3c-1.6,0-2.8-0.4-3.7-1.3s-1.3-2.1-1.3-3.7v-8.7h-2.7v-2.4h2.7v-3.5h2.9v3.5h4.6v2.4h-4.6v8.6
	c0,0.9,0.2,1.5,0.6,2c0.4,0.5,1.1,0.7,1.9,0.7c0.9,0,1.6-0.2,2.2-0.8L891.9,1575.1z M901.4,1576.2c-1.6,0-3.1-0.4-4.4-1.1
	c-1.3-0.7-2.2-1.7-3-2.9c-0.7-1.2-1.1-2.6-1.1-4.2c0-1.6,0.4-3,1.1-4.2c0.7-1.2,1.7-2.2,3-2.9c1.3-0.7,2.7-1.1,4.4-1.1
	c1.4,0,2.7,0.3,3.8,0.9c1.1,0.6,2,1.4,2.6,2.5l-2.2,1.4c-0.5-0.8-1.1-1.3-1.9-1.7s-1.6-0.6-2.5-0.6c-1,0-2,0.2-2.8,0.7
	c-0.8,0.5-1.5,1.1-2,2c-0.5,0.8-0.7,1.8-0.7,2.9c0,1.1,0.2,2.1,0.7,3c0.5,0.8,1.1,1.5,2,1.9c0.8,0.5,1.8,0.7,2.8,0.7
	c0.9,0,1.7-0.2,2.5-0.6s1.4-0.9,1.9-1.7l2.2,1.4c-0.6,1.1-1.5,1.9-2.6,2.6C904.1,1575.9,902.9,1576.2,901.4,1576.2z M917.8,1576.2
	c-1.6,0-3-0.4-4.3-1.1s-2.2-1.7-3-2.9c-0.7-1.2-1-2.6-1-4.2c0-1.6,0.4-3,1-4.2c0.7-1.2,1.7-2.2,3-2.9c1.3-0.7,2.7-1.1,4.3-1.1
	c1.6,0,3,0.4,4.2,1.1c1.3,0.7,2.2,1.6,2.9,2.9c0.7,1.2,1.1,2.6,1.1,4.2c0,1.6-0.4,3-1.1,4.2c-0.7,1.2-1.7,2.2-2.9,2.9
	C920.8,1575.8,919.4,1576.2,917.8,1576.2z M917.8,1573.7c1,0,1.9-0.2,2.7-0.7c0.8-0.5,1.5-1.1,1.9-2c0.5-0.9,0.7-1.8,0.7-2.9
	c0-1.1-0.2-2.1-0.7-2.9c-0.5-0.9-1.1-1.5-1.9-2c-0.8-0.5-1.7-0.7-2.7-0.7c-1,0-1.9,0.2-2.8,0.7c-0.8,0.5-1.4,1.1-1.9,2
	c-0.5,0.8-0.7,1.8-0.7,2.9c0,1.1,0.2,2.1,0.7,2.9c0.5,0.8,1.1,1.5,1.9,2C915.9,1573.4,916.8,1573.7,917.8,1573.7z M944.7,1553.7
	v22.3h-2.8v-2.5c-0.6,0.9-1.5,1.6-2.4,2s-2.1,0.7-3.2,0.7c-1.5,0-2.9-0.3-4.1-1c-1.2-0.7-2.2-1.6-2.9-2.8c-0.7-1.2-1-2.7-1-4.3
	c0-1.6,0.3-3,1-4.2c0.7-1.2,1.7-2.2,2.9-2.8c1.2-0.7,2.6-1,4.1-1c1.1,0,2.2,0.2,3.2,0.7c1,0.4,1.8,1.1,2.4,1.9v-8.8H944.7z
	 M936.5,1573.7c1,0,1.9-0.2,2.7-0.7c0.8-0.5,1.5-1.1,1.9-2c0.5-0.9,0.7-1.8,0.7-2.9c0-1.1-0.2-2.1-0.7-2.9c-0.5-0.9-1.1-1.5-1.9-2
	c-0.8-0.5-1.7-0.7-2.7-0.7c-1,0-1.9,0.2-2.8,0.7c-0.8,0.5-1.4,1.1-1.9,2c-0.5,0.8-0.7,1.8-0.7,2.9c0,1.1,0.2,2.1,0.7,2.9
	c0.5,0.8,1.1,1.5,1.9,2C934.6,1573.4,935.5,1573.7,936.5,1573.7z M964.1,1568.1c0,0.2,0,0.5-0.1,0.9h-12.9c0.2,1.4,0.8,2.5,1.8,3.4
	c1.1,0.8,2.4,1.3,3.9,1.3c1.9,0,3.4-0.6,4.6-1.9l1.6,1.9c-0.7,0.8-1.6,1.5-2.7,1.9c-1.1,0.4-2.2,0.7-3.6,0.7c-1.7,0-3.2-0.3-4.5-1
	c-1.3-0.7-2.3-1.7-3-2.9c-0.7-1.2-1-2.6-1-4.2c0-1.5,0.3-2.9,1-4.2c0.7-1.2,1.6-2.2,2.8-2.9c1.2-0.7,2.6-1.1,4.1-1.1
	c1.5,0,2.9,0.4,4.1,1.1c1.2,0.7,2.1,1.6,2.8,2.9C963.8,1565.1,964.1,1566.5,964.1,1568.1z M956.3,1562.4c-1.4,0-2.5,0.4-3.5,1.3
	c-0.9,0.8-1.5,1.9-1.6,3.3h10.2c-0.2-1.3-0.7-2.4-1.7-3.3C958.8,1562.8,957.7,1562.4,956.3,1562.4z M968.5,1564.1
	c-0.6,0-1-0.2-1.4-0.6c-0.4-0.4-0.6-0.9-0.6-1.5c0-0.6,0.2-1.1,0.6-1.4c0.4-0.4,0.9-0.6,1.4-0.6s1,0.2,1.4,0.6s0.6,0.9,0.6,1.5
	s-0.2,1.1-0.6,1.5C969.5,1563.9,969,1564.1,968.5,1564.1z M968.5,1576.2c-0.6,0-1-0.2-1.4-0.6c-0.4-0.4-0.6-0.9-0.6-1.5
	c0-0.6,0.2-1.1,0.6-1.4c0.4-0.4,0.9-0.6,1.4-0.6s1,0.2,1.4,0.6s0.6,0.9,0.6,1.5s-0.2,1.1-0.6,1.5
	C969.5,1576,969,1576.2,968.5,1576.2z"/>
<path fill="#212121" d="M129.3,1554c2.7,0,4.9,0.7,6.4,1.9c1.6,1.3,2.3,3.1,2.3,5.4c0,2.3-0.8,4.1-2.3,5.4c-1.6,1.3-3.7,2-6.4,2
	h-5.2v6.4h-3v-21H129.3z M129.2,1566c1.9,0,3.4-0.4,4.4-1.2c1-0.8,1.5-2,1.5-3.5c0-1.5-0.5-2.7-1.5-3.5c-1-0.8-2.5-1.2-4.4-1.2h-5.1
	v9.4H129.2z M150.5,1558.9c2,0,3.6,0.6,4.8,1.8c1.2,1.2,1.8,2.9,1.8,5.1v9.2h-2.9v-8.8c0-1.5-0.4-2.7-1.1-3.5
	c-0.7-0.8-1.8-1.2-3.2-1.2c-1.6,0-2.8,0.5-3.7,1.4c-0.9,0.9-1.4,2.2-1.4,3.9v8.2H142v-22.3h2.9v8.6c0.6-0.8,1.4-1.3,2.3-1.8
	C148.2,1559.2,149.3,1558.9,150.5,1558.9z M168.9,1575.2c-1.6,0-3-0.4-4.3-1.1c-1.3-0.7-2.2-1.7-3-2.9c-0.7-1.2-1.1-2.6-1.1-4.2
	c0-1.6,0.4-3,1.1-4.2c0.7-1.2,1.7-2.2,3-2.9c1.3-0.7,2.7-1.1,4.3-1.1s3,0.4,4.2,1.1c1.3,0.7,2.2,1.6,2.9,2.9
	c0.7,1.2,1.1,2.6,1.1,4.2c0,1.6-0.4,3-1.1,4.2c-0.7,1.2-1.7,2.2-2.9,2.9C171.9,1574.8,170.5,1575.2,168.9,1575.2z M168.9,1572.7
	c1,0,1.9-0.2,2.7-0.7c0.8-0.5,1.5-1.1,1.9-2c0.5-0.9,0.7-1.8,0.7-2.9c0-1.1-0.2-2.1-0.7-2.9c-0.5-0.9-1.1-1.5-1.9-2
	c-0.8-0.5-1.7-0.7-2.7-0.7s-1.9,0.2-2.8,0.7c-0.8,0.5-1.4,1.1-1.9,2c-0.5,0.8-0.7,1.8-0.7,2.9c0,1.1,0.2,2.1,0.7,2.9
	c0.5,0.8,1.1,1.5,1.9,2C167,1572.4,167.9,1572.7,168.9,1572.7z M189.3,1558.9c2,0,3.6,0.6,4.8,1.8c1.2,1.2,1.8,2.9,1.8,5.1v9.2H193
	v-8.8c0-1.5-0.4-2.7-1.1-3.5c-0.7-0.8-1.8-1.2-3.2-1.2c-1.6,0-2.8,0.5-3.7,1.4c-0.9,0.9-1.3,2.2-1.3,3.9v8.2h-2.9v-15.9h2.8v2.4
	c0.6-0.8,1.4-1.4,2.3-1.9C186.9,1559.2,188,1558.9,189.3,1558.9z M215.3,1567.1c0,0.2,0,0.5-0.1,0.9h-12.9c0.2,1.4,0.8,2.5,1.8,3.4
	c1.1,0.8,2.4,1.3,3.9,1.3c1.9,0,3.4-0.6,4.6-1.9l1.6,1.9c-0.7,0.8-1.6,1.5-2.7,1.9c-1.1,0.4-2.2,0.7-3.6,0.7c-1.7,0-3.2-0.3-4.5-1
	c-1.3-0.7-2.3-1.7-3-2.9c-0.7-1.2-1.1-2.6-1.1-4.2c0-1.5,0.3-2.9,1-4.2c0.7-1.2,1.7-2.2,2.9-2.9c1.2-0.7,2.6-1.1,4.1-1.1
	c1.5,0,2.9,0.4,4,1.1c1.2,0.7,2.1,1.6,2.8,2.9C215,1564.1,215.3,1565.5,215.3,1567.1z M207.4,1561.4c-1.4,0-2.5,0.4-3.5,1.3
	c-0.9,0.8-1.5,1.9-1.6,3.3h10.2c-0.2-1.3-0.7-2.4-1.6-3.3C210,1561.8,208.8,1561.4,207.4,1561.4z M219.6,1563.1
	c-0.6,0-1-0.2-1.4-0.6c-0.4-0.4-0.6-0.9-0.6-1.5c0-0.6,0.2-1.1,0.6-1.4c0.4-0.4,0.9-0.6,1.4-0.6s1,0.2,1.4,0.6
	c0.4,0.4,0.6,0.9,0.6,1.5s-0.2,1.1-0.6,1.5C220.6,1562.9,220.2,1563.1,219.6,1563.1z M219.6,1575.2c-0.6,0-1-0.2-1.4-0.6
	c-0.4-0.4-0.6-0.9-0.6-1.5c0-0.6,0.2-1.1,0.6-1.4c0.4-0.4,0.9-0.6,1.4-0.6s1,0.2,1.4,0.6c0.4,0.4,0.6,0.9,0.6,1.5s-0.2,1.1-0.6,1.5
	C220.6,1575,220.2,1575.2,219.6,1575.2z"/>
<rect x="2241" y="1535" fill="none" stroke="#212121" stroke-width="4" width="118" height="118"/>
<rect x="2006" y="1536" fill="none" stroke="#212121" stroke-width="4" width="118" height="118"/>
<path fill="none" stroke="#000000" stroke-width="4" d="M2153,1656l59-118"/>
</svg>
